<?xml version="1.0" standalone="no"?>
<!DOCTYPE svg PUBLIC "-//W3C//DTD SVG 20010904//EN"
 "http://www.w3.org/TR/2001/REC-SVG-20010904/DTD/svg10.dtd">
<svg version="1.0" xmlns="http://www.w3.org/2000/svg"
 width="300.000000pt" height="300.000000pt" viewBox="0 0 300.000000 300.000000"
 preserveAspectRatio="xMidYMid meet">
<metadata>
Created by potrace 1.11, written by Peter Selinger 2001-2013
</metadata>
<g transform="translate(0.000000,300.000000) scale(0.100000,-0.100000)"
fill="#000000" stroke="none">
<path d="M1320 2140 l0 -850 170 0 170 0 0 850 0 850 -170 0 -170 0 0 -850z"/>
<path d="M955 2411 c-6 -4 -35 -21 -65 -37 -63 -33 -96 -55 -197 -136 -29 -23
-53 -45 -53 -50 0 -4 -5 -8 -10 -8 -9 0 -28 -19 -93 -94 -58 -68 -114 -154
-162 -251 -102 -206 -135 -358 -130 -590 2 -77 6 -151 9 -165 4 -14 9 -40 12
-59 15 -88 72 -246 116 -324 16 -26 28 -50 28 -53 0 -6 73 -114 99 -148 46
-59 185 -190 253 -239 103 -74 264 -155 338 -172 8 -2 35 -10 60 -18 25 -8 61
-18 80 -21 19 -3 46 -9 60 -12 44 -10 293 -13 350 -4 112 17 133 22 208 45
118 36 225 84 311 142 20 13 45 29 55 36 30 19 78 59 114 94 18 18 37 33 42
33 6 0 10 4 10 8 0 4 19 28 41 52 195 209 317 529 317 830 0 129 -21 280 -53
369 -8 23 -14 42 -14 44 -1 30 -118 264 -150 298 -12 13 -21 26 -21 31 0 19
-231 258 -249 258 -4 0 -19 9 -32 21 -48 41 -224 138 -232 128 -3 -2 -34 -63
-70 -135 l-65 -131 51 -24 c135 -63 254 -161 343 -281 41 -56 104 -166 110
-193 1 -5 10 -28 19 -49 19 -46 19 -44 44 -156 19 -85 22 -246 7 -330 -41
-217 -163 -433 -322 -570 -38 -33 -155 -112 -169 -114 -5 -1 -21 -8 -35 -16
-25 -14 -112 -48 -140 -55 -8 -2 -15 -4 -15 -5 0 -2 -29 -9 -60 -15 -155 -30
-284 -29 -420 5 -76 18 -272 101 -309 130 -6 5 -38 30 -71 56 -33 25 -72 60
-88 78 -15 17 -36 41 -47 52 -11 12 -20 27 -20 33 0 6 -4 11 -9 11 -13 0 -77
120 -134 252 -43 98 -63 312 -44 455 16 117 112 351 169 413 10 10 18 22 18
25 0 13 92 109 147 155 24 19 80 56 125 82 46 26 89 51 97 56 11 6 1 34 -49
140 -62 129 -78 148 -105 123z"/>
</g>
</svg>
