<svg height='100px' width='100px'  fill="#FFFFFF" xmlns="http://www.w3.org/2000/svg" xmlns:xlink="http://www.w3.org/1999/xlink" version="1.1" x="0px" y="0px" viewBox="0 0 64 64" style="enable-background:new 0 0 64 64;" xml:space="preserve"><g><g><path d="M25.852,58.314h28.152V26.986c0-0.818-0.673-1.486-1.501-1.49L30.01,25.391c-1.15-0.005-2.243-0.559-2.923-1.481    l-3.089-4.187c-0.283-0.383-0.738-0.612-1.219-0.612H8.897c-0.832,0-1.508,0.668-1.508,1.489v16.851    c1.897-0.86,3.954-1.31,6.042-1.31c8.062,0,14.621,6.516,14.621,14.524C28.052,53.377,27.281,56.027,25.852,58.314z"></path><path d="M56.115,58.295h4.634c1.241,0,2.25-1.01,2.25-2.25V32.742c0-1.241-1.01-2.25-2.25-2.25H59.7v13.621    c0,1.2-0.976,2.177-2.176,2.177h-1.382L56.115,58.295z"></path><path d="M25.923,1l-0.037,17.679l2.922,3.96c0.281,0.381,0.734,0.61,1.211,0.612l22.493,0.105c2.002,0.009,3.631,1.638,3.631,3.63    V44.15h2.45L58.63,1.037L25.923,1z M51.904,20.335H31.542c-0.591,0-1.07-0.479-1.07-1.07s0.479-1.07,1.07-1.07h20.361    c0.591,0,1.07,0.479,1.07,1.07S52.494,20.335,51.904,20.335z M51.904,13.716H31.542c-0.591,0-1.07-0.479-1.07-1.07    s0.479-1.07,1.07-1.07h20.361c0.591,0,1.07,0.479,1.07,1.07S52.494,13.716,51.904,13.716z M51.904,7.097H31.542    c-0.591,0-1.07-0.479-1.07-1.07s0.479-1.07,1.07-1.07h20.361c0.591,0,1.07,0.479,1.07,1.07S52.494,7.097,51.904,7.097z"></path><path d="M23.862,51.671c-0.591,0-1.07-0.479-1.07-1.07s0.479-1.07,1.07-1.07h1.992c-0.55-5.97-5.384-10.719-11.419-11.2v1.977    c0,0.591-0.479,1.07-1.07,1.07s-1.07-0.479-1.07-1.07v-1.971C6.278,38.879,1.489,43.673,1,49.66h1.998    c0.591,0,1.07,0.479,1.07,1.07S3.59,51.8,2.999,51.8H1.007C1.556,57.77,6.391,62.52,12.426,63v-1.977    c0-0.591,0.479-1.07,1.07-1.07s1.07,0.479,1.07,1.07v1.971c6.017-0.542,10.807-5.335,11.295-11.322H23.862z M13.431,53.262    c-1.07,0-1.99-0.643-2.395-1.559H6.509c-0.591,0-1.07-0.479-1.07-1.07s0.479-1.07,1.07-1.07h4.562    c0.276-0.58,0.756-1.046,1.355-1.294v-4.993c0-0.591,0.479-1.07,1.07-1.07s1.07,0.479,1.07,1.07v5.06    c0.873,0.421,1.481,1.302,1.481,2.329C16.046,52.097,14.873,53.262,13.431,53.262z"></path></g></g></svg>