<svg height='100px' width='100px'  fill="#FFFFFF" xmlns="http://www.w3.org/2000/svg" xmlns:xlink="http://www.w3.org/1999/xlink" xml:space="preserve" version="1.1" style="shape-rendering:geometricPrecision;text-rendering:geometricPrecision;image-rendering:optimizeQuality;" viewBox="0 0 846.66 846.66" x="0px" y="0px" fill-rule="evenodd" clip-rule="evenodd"><defs><style type="text/css">
   
    .fil0 {fill:#FFFFFF}
   
  </style></defs><g><path class="fil0" d="M423.33 235.61c104.6,0 189.39,84.79 189.39,189.39 0,50.66 -19.9,96.66 -52.29,130.65 -1.45,-44.55 -30.63,-82.43 -70.74,-96.82 13.09,-15.27 20.99,-35.11 20.99,-56.79 0,-48.25 -39.11,-87.35 -87.35,-87.35 -48.24,0 -87.35,39.1 -87.35,87.35 0,21.68 7.9,41.52 20.99,56.79 -40.11,14.39 -69.29,52.27 -70.74,96.82 -32.39,-33.99 -52.29,-79.99 -52.29,-130.65 0,-104.6 84.79,-189.39 189.39,-189.39zm141.55 17.79l52.59 -52.59c-6.65,-17.5 -2.93,-38.04 11.17,-52.13 19.14,-19.14 50.19,-19.15 69.34,0 19.15,19.15 19.15,50.2 0,69.35 -14.09,14.09 -34.63,17.81 -52.12,11.16l-52.6 52.6 -28.38 -28.39zm78.7 149.86l74.39 0c7.66,-17.07 24.82,-28.96 44.74,-28.96 27.09,0 49.04,21.95 49.04,49.04 0,27.08 -21.95,49.03 -49.04,49.03 -19.92,0 -37.08,-11.89 -44.74,-28.96l-74.39 0 0 -40.15zm-50.31 161.63l52.59 52.59c17.5,-6.65 38.04,-2.93 52.13,11.17 19.14,19.14 19.15,50.19 0,69.34 -19.15,19.15 -50.2,19.15 -69.35,0 -14.09,-14.09 -17.81,-34.63 -11.16,-52.12l-52.6 -52.6 28.39 -28.38zm-149.86 78.7l0 74.39c17.07,7.66 28.96,24.82 28.96,44.74 0,27.09 -21.95,49.04 -49.04,49.04 -27.08,0 -49.03,-21.95 -49.03,-49.04 0,-19.92 11.89,-37.08 28.96,-44.74l0 -74.39 40.15 0zm-161.63 -50.31l-52.59 52.59c6.65,17.5 2.93,38.04 -11.17,52.13 -19.14,19.14 -50.19,19.15 -69.34,0 -19.15,-19.15 -19.15,-50.2 0,-69.35 14.09,-14.09 34.63,-17.81 52.12,-11.16l52.6 -52.6 28.38 28.39zm-78.7 -149.86l-74.39 0c-7.66,17.07 -24.82,28.96 -44.74,28.96 -27.09,0 -49.04,-21.95 -49.04,-49.04 0,-27.08 21.95,-49.03 49.04,-49.03 19.92,0 37.08,11.89 44.74,28.96l74.39 0 0 40.15zm50.31 -161.63l-52.59 -52.59c-17.5,6.65 -38.04,2.93 -52.13,-11.17 -19.14,-19.14 -19.15,-50.19 0,-69.34 19.15,-19.15 50.2,-19.15 69.35,0 14.09,14.09 17.81,34.63 11.16,52.12l52.6 52.6 -28.39 28.38zm149.86 -78.7l0 -74.39c-17.07,-7.66 -28.96,-24.82 -28.96,-44.74 0,-27.09 21.95,-49.04 49.04,-49.04 27.08,0 49.03,21.95 49.03,49.04 0,19.92 -11.89,37.08 -28.96,44.74l0 74.39 -40.15 0zm-90.4 354.84c30.13,27.56 69.28,42.87 110.48,42.87 41.2,0 80.35,-15.31 110.48,-42.87 -9.75,-58.42 -40.33,-70.57 -87.69,-87.57 17.67,-20.63 38.98,-39 38.98,-68.32 0,-34.13 -27.64,-61.77 -61.77,-61.77 -34.13,0 -61.77,27.64 -61.77,61.77 0,29.32 21.3,47.69 38.98,68.32 -47.36,17 -77.94,29.15 -87.69,87.57z"></path></g></svg>